<svg preserveAspectRatio="none" overflow="visible" style="display: block;" width="14" height="14" viewBox="0 0 14 14" fill="none" xmlns="http://www.w3.org/2000/svg">
<g id="fi_8855589">
<path id="Vector" d="M11.4857 3.60766C11.4808 3.60285 11.4745 3.6011 11.4694 3.59688C10.2828 2.41387 8.67558 1.74957 7 1.74957C5.32442 1.74957 3.71719 2.41387 2.53058 3.59688C2.52548 3.60112 2.51915 3.60286 2.51434 3.60766C2.50953 3.61247 2.5078 3.6188 2.50355 3.6239C1.31985 4.81005 0.655426 6.41758 0.65625 8.09331C0.656233 8.12204 0.66188 8.1505 0.672867 8.17705C0.683855 8.20359 0.699967 8.22771 0.720283 8.24803C0.740599 8.26835 0.764721 8.28446 0.791268 8.29545C0.817816 8.30643 0.846269 8.31208 0.875 8.31206H3.9375C3.96623 8.31208 3.99468 8.30643 4.02123 8.29545C4.04778 8.28446 4.0719 8.26835 4.09222 8.24803C4.11253 8.22771 4.12864 8.20359 4.13963 8.17705C4.15062 8.1505 4.15627 8.12204 4.15625 8.09331C4.15497 7.63763 4.26352 7.18834 4.47271 6.78351C4.6819 6.37867 4.98558 6.03022 5.35801 5.76764C5.73045 5.50507 6.16067 5.33612 6.61226 5.27509C7.06384 5.21407 7.52348 5.26277 7.95225 5.41707L7.67526 6.03911C7.66351 6.06536 7.65705 6.09366 7.65625 6.1224C7.65545 6.15115 7.66033 6.17977 7.67061 6.20662C7.68088 6.23348 7.69636 6.25804 7.71614 6.27891C7.73593 6.29977 7.75964 6.31653 7.78591 6.32822C7.81218 6.33991 7.8405 6.3463 7.86925 6.34703C7.89799 6.34775 7.9266 6.3428 7.95343 6.33246C7.98026 6.32211 8.00478 6.30658 8.0256 6.28674C8.04641 6.2669 8.06311 6.24315 8.07474 6.21685L8.35274 5.59254C8.80338 5.83654 9.17978 6.19768 9.44221 6.63784C9.70465 7.07801 9.84337 7.58086 9.84375 8.09331C9.84373 8.12204 9.84938 8.1505 9.86037 8.17705C9.87135 8.20359 9.88747 8.22771 9.90778 8.24803C9.9281 8.26835 9.95222 8.28446 9.97877 8.29545C10.0053 8.30643 10.0338 8.31208 10.0625 8.31206H13.125C13.1537 8.31208 13.1822 8.30643 13.2087 8.29545C13.2353 8.28446 13.2594 8.26835 13.2797 8.24803C13.3 8.22771 13.3161 8.20359 13.3271 8.17705C13.3381 8.1505 13.3438 8.12204 13.3437 8.09331C13.3446 6.41758 12.6801 4.81005 11.4964 3.6239C11.4922 3.6188 11.4905 3.61247 11.4857 3.60766ZM4.84291 5.62713L2.98605 3.77007C4.02088 2.80665 5.36828 2.24849 6.78125 2.19791V4.8227C6.06419 4.87009 5.38282 5.15286 4.84291 5.62713ZM3.72601 7.87456H1.09781C1.15089 6.46101 1.712 5.11402 2.67814 4.08082L4.53188 5.93474C4.05706 6.47502 3.77379 7.15688 3.72601 7.87456ZM8.86856 3.89691C8.84231 3.88522 8.814 3.87883 8.78527 3.87808C8.75654 3.87734 8.72795 3.88227 8.70113 3.89258C8.6743 3.9029 8.64977 3.9184 8.62895 3.93821C8.60812 3.95801 8.5914 3.98172 8.57974 4.00799L8.13071 5.01635C7.83759 4.90837 7.53045 4.84315 7.21875 4.8227V2.19791C8.63172 2.24849 9.97912 2.80665 11.0139 3.77007L9.15708 5.62713C8.96581 5.45863 8.75561 5.31291 8.53072 5.19291L8.97922 4.18573C9.00281 4.13275 9.0044 4.07258 8.98365 4.01842C8.96291 3.96427 8.92151 3.92057 8.86856 3.89691ZM10.274 7.87456C10.2262 7.15688 9.94294 6.47501 9.46811 5.93473L11.3219 4.08081C12.288 5.11402 12.8491 6.46101 12.9022 7.87456H10.274Z" fill="#2BB656"/>
<path id="Vector_2" d="M4.15625 12.0312C4.15623 12.06 4.16188 12.0884 4.17287 12.115C4.18385 12.1415 4.19997 12.1657 4.22028 12.186C4.2406 12.2063 4.26472 12.2224 4.29127 12.2334C4.31782 12.2444 4.34627 12.25 4.375 12.25H6.125C6.18302 12.25 6.23866 12.227 6.27968 12.1859C6.3207 12.1449 6.34375 12.0893 6.34375 12.0312C6.34375 11.9732 6.3207 11.9176 6.27968 11.8766C6.23866 11.8355 6.18302 11.8125 6.125 11.8125H4.60358C4.65818 11.2147 4.93427 10.6588 5.37765 10.2541C5.82103 9.84937 6.39967 9.62498 7 9.62498C7.60033 9.62498 8.17897 9.84937 8.62235 10.2541C9.06573 10.6588 9.34182 11.2147 9.39642 11.8125H7.875C7.81698 11.8125 7.76134 11.8355 7.72032 11.8766C7.6793 11.9176 7.65625 11.9732 7.65625 12.0312C7.65625 12.0893 7.6793 12.1449 7.72032 12.1859C7.76134 12.227 7.81698 12.25 7.875 12.25H9.625C9.65373 12.25 9.68218 12.2444 9.70873 12.2334C9.73528 12.2224 9.7594 12.2063 9.77972 12.186C9.80003 12.1657 9.81615 12.1415 9.82713 12.115C9.83812 12.0884 9.84377 12.06 9.84375 12.0312C9.8428 11.4335 9.65375 10.8512 9.30339 10.3669C8.95303 9.88254 8.45913 9.52076 7.89169 9.33279C8.15529 9.14397 8.35215 8.87635 8.4539 8.56848C8.55565 8.26061 8.55705 7.92839 8.45789 7.61967C8.35873 7.31096 8.16413 7.04169 7.90213 6.85066C7.64013 6.65963 7.32425 6.5567 7 6.5567C6.67575 6.5567 6.35987 6.65963 6.09787 6.85066C5.83587 7.04169 5.64127 7.31096 5.54211 7.61967C5.44295 7.92839 5.44435 8.26061 5.5461 8.56848C5.64785 8.87635 5.84471 9.14397 6.10831 9.33279C5.54087 9.52076 5.04697 9.88254 4.69661 10.3669C4.34626 10.8512 4.1572 11.4335 4.15625 12.0312ZM5.90625 8.09331C5.90625 7.87699 5.9704 7.66552 6.09058 7.48566C6.21076 7.30579 6.38158 7.1656 6.58144 7.08282C6.7813 7.00004 7.00121 6.97838 7.21338 7.02058C7.42555 7.06278 7.62043 7.16695 7.7734 7.31991C7.92636 7.47288 8.03053 7.66777 8.07273 7.87993C8.11494 8.0921 8.09328 8.31202 8.01049 8.51187C7.92771 8.71173 7.78752 8.88255 7.60765 9.00273C7.42779 9.12292 7.21632 9.18706 7 9.18706C6.71001 9.18676 6.43199 9.07143 6.22694 8.86637C6.02189 8.66132 5.90655 8.3833 5.90625 8.09331Z" fill="#2BB656"/>
<path id="Vector_3" d="M7 12.25C7.12081 12.25 7.21875 12.1521 7.21875 12.0312C7.21875 11.9104 7.12081 11.8125 7 11.8125C6.87919 11.8125 6.78125 11.9104 6.78125 12.0312C6.78125 12.1521 6.87919 12.25 7 12.25Z" fill="#2BB656"/>
</g>
</svg>
