<svg preserveAspectRatio="none" overflow="visible" style="display: block;" width="16.0011" height="16" viewBox="0 0 16.0011 16" fill="none" xmlns="http://www.w3.org/2000/svg">
<g id="react-icons/go/GoVerified">
<path id="Vector" fill-rule="evenodd" clip-rule="evenodd" d="M15.67 7.066L14.59 5.726C14.4167 5.50349 14.3096 5.23661 14.281 4.956L14.091 3.258C14.0525 2.9187 13.9001 2.60247 13.6588 2.36091C13.4174 2.11936 13.1013 1.96675 12.762 1.928L11.063 1.738C10.763 1.708 10.503 1.579 10.283 1.409L8.945 0.33C8.67841 0.116928 8.34728 0.000859566 8.006 0.000859566C7.66472 0.000859566 7.33359 0.116928 7.067 0.33L5.727 1.41C5.5046 1.58371 5.23772 1.69115 4.957 1.72L3.259 1.91C2.559 1.99 2.009 2.54 1.929 3.239L1.739 4.938C1.709 5.238 1.58 5.498 1.41 5.718L0.33 7.055C0.116928 7.32159 0.000859566 7.65272 0.000859566 7.994C0.000859566 8.33528 0.116928 8.66641 0.33 8.933L1.41 10.273C1.58 10.493 1.69 10.753 1.72 11.043L1.91 12.741C1.99 13.441 2.54 13.991 3.239 14.071L4.938 14.261C5.238 14.291 5.498 14.42 5.718 14.59L7.057 15.67C7.607 16.109 8.386 16.109 8.935 15.67L10.275 14.59C10.495 14.42 10.755 14.31 11.045 14.28L12.743 14.09C13.443 14.01 13.993 13.46 14.073 12.761L14.263 11.062C14.293 10.762 14.422 10.502 14.592 10.282L15.672 8.943C15.8851 8.67641 16.0011 8.34528 16.0011 8.004C16.0011 7.66272 15.8851 7.33159 15.672 7.065L15.67 7.066ZM6.5 12.01L3 8.51L4.5 7.01L6.5 9.01L11.5 4.01L13 5.56L6.5 12.01Z" fill="#6775F5"/>
</g>
</svg>
